<svg viewBox="0 0 1920 1080" xmlns="http://www.w3.org/2000/svg">
<path d="M375,236 l0,25 z" fill="none" opacity="0.25" stroke="red" stroke-width="25"/>
<path d="M375,236 l0,25 z" fill="none" opacity="0.25" stroke="red" stroke-width="25"/>
<path d="M375,236 l0,25 z" fill="none" opacity="0.25" stroke="red" stroke-width="25"/>
<path d="M1489,551 l0,25 z" fill="none" opacity="0.25" stroke="red" stroke-width="25"/>
<path d="M1489,551 l0,25 z" fill="none" opacity="0.25" stroke="red" stroke-width="25"/>
<path d="M1489,551 l0,25 z" fill="none" opacity="0.25" stroke="red" stroke-width="25"/>
<path d="M1568,280 l0,25 z" fill="none" opacity="0.25" stroke="red" stroke-width="25"/>
<path d="M1568,249 l0,25 z" fill="none" opacity="0.25" stroke="red" stroke-width="25"/>
<path d="M1568,249 l0,25 z" fill="none" opacity="0.25" stroke="red" stroke-width="25"/>
<path d="M809,256 l0,25 z" fill="none" opacity="0.25" stroke="red" stroke-width="25"/>
<path d="M809,256 l0,25 z" fill="none" opacity="0.25" stroke="red" stroke-width="25"/>
<path d="M784,256 l0,25 z" fill="none" opacity="0.25" stroke="red" stroke-width="25"/>
<path d="M784,256 l0,25 z" fill="none" opacity="0.25" stroke="red" stroke-width="25"/>
<path d="M798,256 l0,25 z" fill="none" opacity="0.25" stroke="red" stroke-width="25"/>
<path d="M798,256 l0,25 z" fill="none" opacity="0.25" stroke="red" stroke-width="25"/>
<path d="M798,256 l0,25 z" fill="none" opacity="0.25" stroke="red" stroke-width="25"/>
<path d="M798,256 l0,25 z" fill="none" opacity="0.25" stroke="red" stroke-width="25"/>
<path d="M798,256 l0,25 z" fill="none" opacity="0.25" stroke="red" stroke-width="25"/>
<path d="M798,256 l0,25 z" fill="none" opacity="0.25" stroke="red" stroke-width="25"/>
<path d="M782,256 l0,25 z" fill="none" opacity="0.25" stroke="red" stroke-width="25"/>
<path d="M782,256 l0,25 z" fill="none" opacity="0.25" stroke="red" stroke-width="25"/>
</svg>