<svg viewBox="0 0 1920 1080" xmlns="http://www.w3.org/2000/svg">
<path d="M1106,879 l0,25 z" fill="none" opacity="0.25" stroke="red" stroke-width="25"/>
<path d="M1911,463 l0,25 z" fill="none" opacity="0.25" stroke="red" stroke-width="25"/>
<path d="M613,409 l0,25 z" fill="none" opacity="0.25" stroke="red" stroke-width="25"/>
<path d="M649,310 l0,25 z" fill="none" opacity="0.25" stroke="red" stroke-width="25"/>
<path d="M369,356 l0,25 z" fill="none" opacity="0.25" stroke="red" stroke-width="25"/>
<path d="M463,248 l0,25 z" fill="none" opacity="0.25" stroke="red" stroke-width="25"/>
<path d="M463,248 l0,25 z" fill="none" opacity="0.25" stroke="red" stroke-width="25"/>
<path d="M463,248 l0,25 z" fill="none" opacity="0.25" stroke="red" stroke-width="25"/>
<path d="M355,360 l0,25 z" fill="none" opacity="0.25" stroke="red" stroke-width="25"/>
<path d="M416,248 l0,25 z" fill="none" opacity="0.25" stroke="red" stroke-width="25"/>
<path d="M416,248 l0,25 z" fill="none" opacity="0.25" stroke="red" stroke-width="25"/>
<path d="M416,248 l0,25 z" fill="none" opacity="0.25" stroke="red" stroke-width="25"/>
<path d="M1600,369 l0,25 z" fill="none" opacity="0.25" stroke="red" stroke-width="25"/>
<path d="M1651,252 l0,25 z" fill="none" opacity="0.25" stroke="red" stroke-width="25"/>
<path d="M1651,252 l0,25 z" fill="none" opacity="0.25" stroke="red" stroke-width="25"/>
<path d="M1651,252 l0,25 z" fill="none" opacity="0.25" stroke="red" stroke-width="25"/>
<path d="M1565,356 l0,25 z" fill="none" opacity="0.25" stroke="red" stroke-width="25"/>
<path d="M1655,246 l0,25 z" fill="none" opacity="0.25" stroke="red" stroke-width="25"/>
<path d="M880,257 l0,25 z" fill="none" opacity="0.25" stroke="red" stroke-width="25"/>
<path d="M880,257 l0,25 z" fill="none" opacity="0.25" stroke="red" stroke-width="25"/>
<path d="M863,278 l0,25 z" fill="none" opacity="0.25" stroke="red" stroke-width="25"/>
<path d="M863,278 l0,25 z" fill="none" opacity="0.25" stroke="red" stroke-width="25"/>
<path d="M883,278 l0,25 z" fill="none" opacity="0.25" stroke="red" stroke-width="25"/>
<path d="M883,278 l0,25 z" fill="none" opacity="0.25" stroke="red" stroke-width="25"/>
<path d="M874,278 l0,25 z" fill="none" opacity="0.25" stroke="red" stroke-width="25"/>
<path d="M874,278 l0,25 z" fill="none" opacity="0.25" stroke="red" stroke-width="25"/>
<path d="M853,278 l0,25 z" fill="none" opacity="0.25" stroke="red" stroke-width="25"/>
<path d="M853,278 l0,25 z" fill="none" opacity="0.25" stroke="red" stroke-width="25"/>
<path d="M853,278 l0,25 z" fill="none" opacity="0.25" stroke="red" stroke-width="25"/>
<path d="M853,278 l0,25 z" fill="none" opacity="0.25" stroke="red" stroke-width="25"/>
<path d="M853,278 l0,25 z" fill="none" opacity="0.25" stroke="red" stroke-width="25"/>
<path d="M853,278 l0,25 z" fill="none" opacity="0.25" stroke="red" stroke-width="25"/>
<path d="M853,278 l0,25 z" fill="none" opacity="0.25" stroke="red" stroke-width="25"/>
<path d="M853,278 l0,25 z" fill="none" opacity="0.25" stroke="red" stroke-width="25"/>
<path d="M853,278 l0,25 z" fill="none" opacity="0.25" stroke="red" stroke-width="25"/>
<path d="M853,278 l0,25 z" fill="none" opacity="0.25" stroke="red" stroke-width="25"/>
<path d="M853,278 l0,25 z" fill="none" opacity="0.25" stroke="red" stroke-width="25"/>
<path d="M853,278 l0,25 z" fill="none" opacity="0.25" stroke="red" stroke-width="25"/>
<path d="M756,784 l0,25 z" fill="none" opacity="0.25" stroke="red" stroke-width="25"/>
<path d="M756,776 l0,25 z" fill="none" opacity="0.25" stroke="red" stroke-width="25"/>
</svg>